<?xml version="1.0" encoding="UTF-8"?>
<svg width="24" height="24" viewBox="0 0 24 24" fill="none" xmlns="http://www.w3.org/2000/svg">
  <path d="M3.7 13.4C5.2 17.5 8.6 20.9 12.7 22.4M20.3 10.6C18.8 6.5 15.4 3.1 11.3 1.6M14.1 3.3L11.3 6.1C10.9 6.5 10.9 7.1 11.3 7.5L16.5 12.7C16.9 13.1 17.5 13.1 17.9 12.7L20.7 9.9C21.1 9.5 21.1 8.9 20.7 8.5L15.5 3.3C15.1 2.9 14.5 2.9 14.1 3.3ZM6.8 15.7L3.3 19.2C2.9 19.6 2.9 20.2 3.3 20.6L3.4 20.7C3.8 21.1 4.4 21.1 4.8 20.7L8.3 17.2M8.8 13.7L6.3 16.2M15.8 6.7L13.3 9.2" stroke="#4fc3dc" stroke-width="2" stroke-linecap="round" stroke-linejoin="round"/>
</svg>